HIERARCHY
ROOT Hips
{
  OFFSET 36.8678 92.9152 21.303
  CHANNELS 6 Xposition Yposition Zposition Zrotation Xrotation Yrotation
  JOINT spine
  {
    OFFSET 0 7.4756 0.429885
    CHANNELS 3 Zrotation Xrotation Yrotation
    JOINT spine1
    {
      OFFSET 0 9.92301 0
      CHANNELS 3 Zrotation Xrotation Yrotation
      JOINT spine2
      {
        OFFSET 0 9.50804 0
        CHANNELS 3 Zrotation Xrotation Yrotation
        JOINT Neck
        {
          OFFSET 0 24.4111 1.16384
          CHANNELS 3 Zrotation Xrotation Yrotation
          JOINT Head
          {
            OFFSET 0 7.37523 0
            CHANNELS 3 Zrotation Xrotation Yrotation
            End Site
            {
              OFFSET 0 17.8522 -5.88741
            }
          }
        }
        JOINT RightShoulder
        {
          OFFSET -4.00356 10.2679 -0.557468
          CHANNELS 3 Zrotation Xrotation Yrotation
          JOINT RightArm
          {
            OFFSET 0 13.4673 0
            CHANNELS 3 Zrotation Xrotation Yrotation
            JOINT RightArmRoll
            {
              OFFSET 0 6.79857 0
              CHANNELS 3 Zrotation Xrotation Yrotation
              JOINT RightForeArm
              {
                OFFSET 0 19.8018 0
                CHANNELS 3 Zrotation Xrotation Yrotation
                JOINT RightForeArmRoll
                {
                  OFFSET 0 7.62905 0
                  CHANNELS 3 Zrotation Xrotation Yrotation
                  JOINT RightHand
                  {
                    OFFSET 0 15.3098 0
                    CHANNELS 3 Zrotation Xrotation Yrotation
                    End Site
                    {
                      OFFSET 0 0 0
                    }
                  }
                }
              }
            }
          }
        }
        JOINT LeftShoulder
        {
          OFFSET 4.00356 10.2679 -0.557468
          CHANNELS 3 Zrotation Xrotation Yrotation
          JOINT LeftArm
          {
            OFFSET 0 13.4673 0
            CHANNELS 3 Zrotation Xrotation Yrotation
            JOINT LeftArmRoll
            {
              OFFSET 0 6.79857 0
              CHANNELS 3 Zrotation Xrotation Yrotation
              JOINT LeftForeArm
              {
                OFFSET 0 19.8018 0
                CHANNELS 3 Zrotation Xrotation Yrotation
                JOINT LeftForeArmRoll
                {
                  OFFSET 0 7.62905 0
                  CHANNELS 3 Zrotation Xrotation Yrotation
                  JOINT LeftHand
                  {
                    OFFSET 0 15.3098 0
                    CHANNELS 3 Zrotation Xrotation Yrotation
                    End Site
                    {
                      OFFSET 0 0 0
                    }
                  }
                }
              }
            }
          }
        }
      }
    }
  }
  JOINT RightUpLeg
  {
    OFFSET -6.62609 -1.21505 -1.01927
    CHANNELS 3 Zrotation Xrotation Yrotation
    JOINT RightUpLegRoll
    {
      OFFSET 0 17.9517 0
      CHANNELS 3 Zrotation Xrotation Yrotation
      JOINT RightLeg
      {
        OFFSET 0 -22.2304 0
        CHANNELS 3 Zrotation Xrotation Yrotation
        JOINT RightLegRoll
        {
          OFFSET 0 22.3032 0
          CHANNELS 3 Zrotation Xrotation Yrotation
          JOINT RightFoot
          {
            OFFSET 0 18.5636 0
            CHANNELS 3 Zrotation Xrotation Yrotation
            JOINT RightToeBase
            {
              OFFSET 0 15.5183 0
              CHANNELS 3 Zrotation Xrotation Yrotation
              End Site
              {
                OFFSET 0.00657761 7.51539 -0.866263
              }
            }
          }
        }
      }
    }
  }
  JOINT LeftUpLeg
  {
    OFFSET 6.62609 -1.21505 -1.01927
    CHANNELS 3 Zrotation Xrotation Yrotation
    JOINT LeftUpLegRoll
    {
      OFFSET 0 17.9518 0
      CHANNELS 3 Zrotation Xrotation Yrotation
      JOINT LeftLeg
      {
        OFFSET 0 22.2303 0
        CHANNELS 3 Zrotation Xrotation Yrotation
        JOINT LeftLegRoll
        {
          OFFSET 0 22.5093 0
          CHANNELS 3 Zrotation Xrotation Yrotation
          JOINT LeftFoot
          {
            OFFSET 0 18.3575 0
            CHANNELS 3 Zrotation Xrotation Yrotation
            JOINT LeftToeBase
            {
              OFFSET 0 15.5183 0
              CHANNELS 3 Zrotation Xrotation Yrotation
              End Site
              {
                OFFSET -0.029478 7.51538 -0.866263
              }
            }
          }
        }
      }
    }
  }
}
MOTION
Frames: 10
Frame Time: 0.00208333
41.3237 93.5996 21.7534 2.17855 1.19764 75.8044 -0.404241 -1.27755 0.566124 -0.812121 1.44354 1.176 -0.826821 3.08837 1.19063 -14.5474 -1.54149 -0.41205 15.0962 6.394 -1.83135 41.1111 -7.84134 -4.27159 -20.5243 85.3521 118.373 -1.24473e-005 6.12967e-008 -8.67512e-006 6.0413 42.1761 -5.23077 -3.50239e-006 1.05678e-005 -3.00499 8.02891 -4.95116 0.697419 -76.9696 -4.26392 3.86703 -88.9476 34.0368 -0.381034 -4.01395e-006 -2.3534e-006 4.84032e-006 -17.9412 11.8595 2.39034 -1.00895e-005 -9.75714e-007 3.00725 -8.03085 -4.95168 -0.697757 -176.845 -2.01891 -2.26734 180 7.01538e-015 178.883 177.702 7.56052 179.804 1.42281e-006 -2.21072e-005 0.163724 -20.7148 70.459 21.8103 8.14166 25.2324 -3.48994 -175.339 9.18814 0.507664 4.54188e-006 -4.6773e-006 -0.956856 -2.66145 -11.308 0.111157 2.46362e-006 3.61397e-006 -0.112543 17.4557 66.4335 -18.3373 -8.1293 25.2332 3.48468 
41.2972 93.6168 21.7524 2.18496 1.1955 75.7992 -0.404219 -1.27688 0.56452 -0.812991 1.44489 1.17281 -0.827652 3.08972 1.18748 -14.4834 -1.44002 -0.393495 15.0343 6.33747 -1.81166 41.2369 -7.78753 -4.22936 -18.6053 85.3786 116.15 -1.24473e-005 6.12967e-008 -8.67512e-006 6.13731 42.0239 -5.24473 -3.50239e-006 1.05678e-005 -3.00499 8.02891 -4.95116 0.697419 -76.9222 -4.24582 3.85657 -89.0616 33.9934 -0.433848 -4.01395e-006 -2.3534e-006 4.84032e-006 -17.8722 11.7519 2.36721 -1.00895e-005 -9.75714e-007 3.00725 -8.03085 -4.95168 -0.697757 -176.841 -2.01008 -2.27155 180 7.01538e-015 178.883 177.703 7.56101 179.804 1.42281e-006 -2.21072e-005 0.163711 -20.7122 70.4565 21.8075 8.14166 25.2324 -3.48994 -175.341 9.20836 0.509055 4.54188e-006 -4.6773e-006 -0.956947 -2.65821 -11.3413 0.111873 2.46362e-006 3.61397e-006 -0.113236 17.4593 66.4386 -18.3412 -8.1293 25.2332 3.48468 
41.279 93.606 21.7512 2.19075 1.19314 75.7947 -0.403891 -1.27595 0.562992 -0.813109 1.44675 1.16973 -0.827732 3.09158 1.18443 -14.4252 -1.34572 -0.376507 14.9759 6.28552 -1.79392 41.3565 -7.73684 -4.18969 -16.6815 85.4023 113.927 -1.24473e-005 6.12967e-008 -8.67512e-006 6.23315 41.875 -5.25853 -3.50239e-006 1.05678e-005 -3.00499 8.02891 -4.95116 0.697419 -76.8791 -4.22807 3.84653 -89.1717 33.9524 -0.488021 -4.01395e-006 -2.3534e-006 4.84032e-006 -17.8034 11.6442 2.34417 -1.00895e-005 -9.75714e-007 3.00725 -8.03085 -4.95168 -0.697757 -176.836 -2.00045 -2.27627 180 7.01538e-015 178.883 177.705 7.56203 179.803 1.42281e-006 -2.21072e-005 0.163701 -20.7101 70.4544 21.8052 8.14166 25.2324 -3.48994 -175.342 9.22899 0.510013 4.54188e-006 -4.6773e-006 -0.957037 -2.65537 -11.3731 0.112499 2.46362e-006 3.61397e-006 -0.113875 17.4625 66.4433 -18.3447 -8.1293 25.2332 3.48468 
41.2552 93.6025 21.7465 2.19581 1.1905 75.7909 -0.403161 -1.27469 0.56154 -0.812248 1.4493 1.16675 -0.826834 3.09413 1.18144 -14.3745 -1.26043 -0.3615 14.9221 6.23937 -1.77867 41.4678 -7.69026 -4.15338 -14.7596 85.4243 111.711 -1.24473e-005 6.12967e-008 -8.67512e-006 6.32866 41.7299 -5.27215 -3.50239e-006 1.05678e-005 -3.00499 8.02891 -4.95116 0.697419 -76.8418 -4.21074 3.83702 -89.2766 33.9142 -0.543722 -4.01395e-006 -2.3534e-006 4.84032e-006 -17.7352 11.5366 2.32128 -1.00895e-005 -9.75714e-007 3.00725 -8.03085 -4.95168 -0.697757 -176.831 -1.98992 -2.28159 180 7.01538e-015 178.883 177.707 7.56363 179.803 1.42281e-006 -2.21072e-005 0.163695 -20.7085 70.4528 21.8035 8.14166 25.2324 -3.48994 -175.343 9.25005 0.510419 4.54188e-006 -4.6773e-006 -0.957126 -2.65302 -11.4033 0.113011 2.46362e-006 3.61397e-006 -0.11445 17.4654 66.4473 -18.3477 -8.1293 25.2332 3.48468 
41.2202 93.6004 21.7411 2.20006 1.18751 75.7879 -0.40193 -1.27299 0.560165 -0.810185 1.45271 1.16385 -0.824734 3.09754 1.17851 -14.333 -1.18597 -0.348891 14.8744 6.20023 -1.76647 41.5685 -7.64878 -4.12122 -12.8437 85.4459 109.508 -1.24473e-005 6.12967e-008 -8.67512e-006 6.42368 41.5892 -5.28559 -3.50239e-006 1.05678e-005 -3.00499 8.02891 -4.95116 0.697419 -76.8116 -4.1939 3.82814 -89.3752 33.8795 -0.601127 -4.01395e-006 -2.3534e-006 4.84032e-006 -17.6678 11.4294 2.29861 -1.00895e-005 -9.75714e-007 3.00725 -8.03085 -4.95168 -0.697757 -176.825 -1.97842 -2.28764 180 7.01538e-015 178.884 177.709 7.56589 179.803 1.42281e-006 -2.21072e-005 0.163693 -20.7075 70.4518 21.8024 8.14166 25.2324 -3.48994 -175.343 9.27156 0.510154 4.54188e-006 -4.6773e-006 -0.957213 -2.65126 -11.4314 0.11339 2.46362e-006 3.61397e-006 -0.11495 17.4677 66.4508 -18.3502 -8.1293 25.2332 3.48468 
41.1991 93.5885 21.7407 2.2034 1.18408 75.7858 -0.4001 -1.27078 0.55887 -0.806694 1.45716 1.16102 -0.821207 3.10199 1.17563 -14.3027 -1.12419 -0.339093 14.8341 6.1693 -1.75785 41.6567 -7.6134 -4.09399 -10.936 85.4683 107.321 -1.24473e-005 6.12967e-008 -8.67512e-006 6.51805 41.4535 -5.29883 -3.50239e-006 1.05678e-005 -3.00499 8.02891 -4.95116 0.697419 -76.7898 -4.17765 3.82002 -89.4662 33.8488 -0.660407 -4.01395e-006 -2.3534e-006 4.84032e-006 -17.6016 11.3229 2.27621 -1.00895e-005 -9.75714e-007 3.00725 -8.03085 -4.95168 -0.697757 -176.817 -1.96585 -2.29452 180 7.01538e-015 178.884 177.711 7.56883 179.802 1.42281e-006 -2.21072e-005 0.163695 -20.7072 70.4513 21.802 8.14166 25.2324 -3.48994 -175.342 9.29354 0.5091 4.54188e-006 -4.6773e-006 -0.957297 -2.65018 -11.4571 0.113611 2.46362e-006 3.61397e-006 -0.115365 17.4696 66.4535 -18.3522 -8.1293 25.2332 3.48468 
41.1861 93.5889 21.7423 2.20509 1.17994 75.7851 -0.397675 -1.26833 0.557637 -0.80173 1.4621 1.15821 -0.816208 3.10694 1.17273 -14.282 -1.07239 -0.331578 14.7999 6.1449 -1.75225 41.7345 -7.58275 -4.07058 -9.01857 85.4905 105.131 -1.24473e-005 6.12967e-008 -8.67512e-006 6.61233 41.3222 -5.31191 -3.50239e-006 1.05678e-005 -3.00499 8.02891 -4.95116 0.697419 -76.7758 -4.1614 3.81237 -89.5501 33.8217 -0.722395 -4.01395e-006 -2.3534e-006 4.84032e-006 -17.5358 11.216 2.25385 -1.00895e-005 -9.75714e-007 3.00725 -8.03085 -4.95168 -0.697757 -176.808 -1.95151 -2.3029 180 7.01538e-015 178.884 177.714 7.57254 179.802 1.42281e-006 -2.21072e-005 0.163698 -20.7075 70.4515 21.8023 8.14166 25.2324 -3.48994 -175.34 9.31722 0.506984 4.54188e-006 -4.6773e-006 -0.957381 -2.64974 -11.4812 0.113677 2.46362e-006 3.61397e-006 -0.115697 17.4709 66.4555 -18.3536 -8.1293 25.2332 3.48468 
41.1586 93.5887 21.7407 2.20471 1.17499 75.7858 -0.394771 -1.26592 0.556453 -0.795524 1.46696 1.15539 -0.809965 3.1118 1.1698 -14.268 -1.0265 -0.32548 14.7696 6.12436 -1.74864 41.806 -7.55467 -4.04925 -7.07412 85.5103 102.916 -1.24473e-005 6.12967e-008 -8.67512e-006 6.70713 41.194 -5.32484 -3.50239e-006 1.05678e-005 -3.00499 8.02891 -4.95116 0.697419 -76.7676 -4.14466 3.80487 -89.6289 33.7975 -0.787503 -4.01395e-006 -2.3534e-006 4.84032e-006 -17.4696 11.1076 2.23129 -1.00895e-005 -9.75714e-007 3.00725 -8.03085 -4.95168 -0.697757 -176.797 -1.93496 -2.31314 180 7.01538e-015 178.884 177.718 7.57697 179.802 1.42281e-006 -2.21072e-005 0.1637 -20.7084 70.4523 21.8033 8.14166 25.2324 -3.48994 -175.336 9.34351 0.503745 4.54188e-006 -4.6773e-006 -0.957464 -2.64977 -11.5047 0.113615 2.46362e-006 3.61397e-006 -0.115962 17.4718 66.4569 -18.3545 -8.1293 25.2332 3.48468 
41.1303 93.582 21.7378 2.20262 1.16939 75.7879 -0.391458 -1.26352 0.555325 -0.788255 1.47181 1.1526 -0.80266 3.11665 1.16687 -14.2598 -0.986235 -0.320704 14.7425 6.10749 -1.74685 41.8718 -7.52899 -4.02988 -5.10548 85.5273 100.679 -1.24473e-005 6.12967e-008 -8.67512e-006 6.80235 41.0688 -5.33764 -3.50239e-006 1.05678e-005 -3.00499 8.02891 -4.95116 0.697419 -76.7646 -4.1276 3.79756 -89.7033 33.7759 -0.855282 -4.01395e-006 -2.3534e-006 4.84032e-006 -17.403 10.998 2.20857 -1.00895e-005 -9.75714e-007 3.00725 -8.03085 -4.95168 -0.697757 -176.784 -1.91656 -2.32489 180 7.01538e-015 178.884 177.722 7.58206 179.801 1.42281e-006 -2.21072e-005 0.163702 -20.7099 70.4536 21.8049 8.14166 25.2324 -3.48994 -175.331 9.3719 0.499577 4.54188e-006 -4.6773e-006 -0.957545 -2.65021 -11.5274 0.113441 2.46362e-006 3.61397e-006 -0.116166 17.4723 66.4577 -18.355 -8.1293 25.2332 3.48468 
41.1092 93.5742 21.7342 2.19919 1.1633 75.7909 -0.387806 -1.26107 0.554258 -0.780108 1.47674 1.14985 -0.794477 3.12159 1.16396 -14.2566 -0.951325 -0.317156 14.7181 6.09408 -1.7467 41.9326 -7.50553 -4.01232 -3.11582 85.5411 98.424 -1.24473e-005 6.12967e-008 -8.67512e-006 6.89789 40.9466 -5.35029 -3.50239e-006 1.05678e-005 -3.00499 8.02891 -4.95116 0.697419 -76.7659 -4.11039 3.79044 -89.7738 33.7565 -0.925281 -4.01395e-006 -2.3534e-006 4.84032e-006 -17.3361 10.8873 2.18576 -1.00895e-005 -9.75714e-007 3.00725 -8.03085 -4.95168 -0.697757 -176.77 -1.89666 -2.33781 180 7.01538e-015 178.884 177.727 7.58775 179.8 1.42281e-006 -2.21072e-005 0.163704 -20.712 70.4554 21.807 8.14166 25.2324 -3.48994 -175.325 9.40186 0.494676 4.54188e-006 -4.6773e-006 -0.957626 -2.65104 -11.5494 0.113169 2.46362e-006 3.61397e-006 -0.116315 17.4724 66.458 -18.355 -8.1293 25.2332 3.48468 
